<?xml version="1.0" encoding="utf-8" standalone="no"?>
<!DOCTYPE svg PUBLIC "-//W3C//DTD SVG 1.1//EN"
  "http://www.w3.org/Graphics/SVG/1.1/DTD/svg11.dtd">
<svg xmlns:xlink="http://www.w3.org/1999/xlink" width="792pt" height="504pt" viewBox="0 0 792 504" xmlns="http://www.w3.org/2000/svg" version="1.1">
 <metadata>
  <rdf:RDF xmlns:dc="http://purl.org/dc/elements/1.1/" xmlns:cc="http://creativecommons.org/ns#" xmlns:rdf="http://www.w3.org/1999/02/22-rdf-syntax-ns#">
   <cc:Work>
    <dc:type rdf:resource="http://purl.org/dc/dcmitype/StillImage"/>
    <dc:date>2026-07-05T12:07:33.062744</dc:date>
    <dc:format>image/svg+xml</dc:format>
    <dc:creator>
     <cc:Agent>
      <dc:title>Matplotlib v3.11.0, https://matplotlib.org/</dc:title>
     </cc:Agent>
    </dc:creator>
   </cc:Work>
  </rdf:RDF>
 </metadata>
 <defs>
  <style type="text/css">*{stroke-linejoin: round; stroke-linecap: butt}</style>
 </defs>
 <g id="figure_1">
  <g id="patch_1">
   <path d="M 0 504 
L 792 504 
L 792 0 
L 0 0 
z
" style="fill: #f8fafc"/>
  </g>
  <g id="axes_1">
   <g id="patch_2">
    <path d="M 45.936 185.472 
L 169.488 185.472 
Q 178.992 185.472 178.992 179.424 
L 178.992 96.768 
Q 178.992 90.72 169.488 90.72 
L 45.936 90.72 
Q 36.432 90.72 36.432 96.768 
L 36.432 179.424 
Q 36.432 185.472 45.936 185.472 
z
" clip-path="url(#pfc3101bb08)" style="fill: #ffffff; stroke: #d3dbe6; stroke-width: 0.8; stroke-linejoin: miter"/>
   </g>
   <g id="patch_3">
    <path d="M 230.472 185.472 
L 354.024 185.472 
Q 363.528 185.472 363.528 179.424 
L 363.528 96.768 
Q 363.528 90.72 354.024 90.72 
L 230.472 90.72 
Q 220.968 90.72 220.968 96.768 
L 220.968 179.424 
Q 220.968 185.472 230.472 185.472 
z
" clip-path="url(#pfc3101bb08)" style="fill: #ffffff; stroke: #d3dbe6; stroke-width: 0.8; stroke-linejoin: miter"/>
   </g>
   <g id="patch_4">
    <path d="M 415.008 185.472 
L 538.56 185.472 
Q 548.064 185.472 548.064 179.424 
L 548.064 96.768 
Q 548.064 90.72 538.56 90.72 
L 415.008 90.72 
Q 405.504 90.72 405.504 96.768 
L 405.504 179.424 
Q 405.504 185.472 415.008 185.472 
z
" clip-path="url(#pfc3101bb08)" style="fill: #ffffff; stroke: #d3dbe6; stroke-width: 0.8; stroke-linejoin: miter"/>
   </g>
   <g id="patch_5">
    <path d="M 599.544 185.472 
L 723.096 185.472 
Q 732.6 185.472 732.6 179.424 
L 732.6 96.768 
Q 732.6 90.72 723.096 90.72 
L 599.544 90.72 
Q 590.04 90.72 590.04 96.768 
L 590.04 179.424 
Q 590.04 185.472 599.544 185.472 
z
" clip-path="url(#pfc3101bb08)" style="fill: #ffffff; stroke: #d3dbe6; stroke-width: 0.8; stroke-linejoin: miter"/>
   </g>
   <g id="patch_6">
    <path d="M 186.12 138.096 
Q 198.396 138.096 208.435932 138.096 
" clip-path="url(#pfc3101bb08)" style="fill: none; stroke: #5b55a5; stroke-width: 2; stroke-linecap: round"/>
    <path d="M 201.235932 134.496 
L 208.435932 138.096 
L 201.235932 141.696 
z
" clip-path="url(#pfc3101bb08)" style="fill: #5b55a5; stroke: #5b55a5; stroke-width: 2; stroke-linecap: round"/>
   </g>
   <g id="patch_7">
    <path d="M 370.656 138.096 
Q 382.932 138.096 392.971932 138.096 
" clip-path="url(#pfc3101bb08)" style="fill: none; stroke: #5b55a5; stroke-width: 2; stroke-linecap: round"/>
    <path d="M 385.771932 134.496 
L 392.971932 138.096 
L 385.771932 141.696 
z
" clip-path="url(#pfc3101bb08)" style="fill: #5b55a5; stroke: #5b55a5; stroke-width: 2; stroke-linecap: round"/>
   </g>
   <g id="patch_8">
    <path d="M 555.192 138.096 
Q 567.468 138.096 577.507932 138.096 
" clip-path="url(#pfc3101bb08)" style="fill: none; stroke: #5b55a5; stroke-width: 2; stroke-linecap: round"/>
    <path d="M 570.307932 134.496 
L 577.507932 138.096 
L 570.307932 141.696 
z
" clip-path="url(#pfc3101bb08)" style="fill: #5b55a5; stroke: #5b55a5; stroke-width: 2; stroke-linecap: round"/>
   </g>
   <g id="patch_9">
    <path d="M 53.064 243.432 
L 157.608 243.432 
Q 163.944 243.432 163.944 239.4 
L 163.944 204.624 
Q 163.944 200.592 157.608 200.592 
L 53.064 200.592 
Q 46.728 200.592 46.728 204.624 
L 46.728 239.4 
Q 46.728 243.432 53.064 243.432 
z
" clip-path="url(#pfc3101bb08)" style="fill: #fbfdff; stroke: #d6dee9; stroke-width: 0.8; stroke-linejoin: miter"/>
   </g>
   <g id="patch_10">
    <path d="M 177.408 243.432 
L 281.952 243.432 
Q 288.288 243.432 288.288 239.4 
L 288.288 204.624 
Q 288.288 200.592 281.952 200.592 
L 177.408 200.592 
Q 171.072 200.592 171.072 204.624 
L 171.072 239.4 
Q 171.072 243.432 177.408 243.432 
z
" clip-path="url(#pfc3101bb08)" style="fill: #fbfdff; stroke: #d6dee9; stroke-width: 0.8; stroke-linejoin: miter"/>
   </g>
   <g id="patch_11">
    <path d="M 301.752 243.432 
L 406.296 243.432 
Q 412.632 243.432 412.632 239.4 
L 412.632 204.624 
Q 412.632 200.592 406.296 200.592 
L 301.752 200.592 
Q 295.416 200.592 295.416 204.624 
L 295.416 239.4 
Q 295.416 243.432 301.752 243.432 
z
" clip-path="url(#pfc3101bb08)" style="fill: #fbfdff; stroke: #d6dee9; stroke-width: 0.8; stroke-linejoin: miter"/>
   </g>
   <g id="patch_12">
    <path d="M 426.096 243.432 
L 530.64 243.432 
Q 536.976 243.432 536.976 239.4 
L 536.976 204.624 
Q 536.976 200.592 530.64 200.592 
L 426.096 200.592 
Q 419.76 200.592 419.76 204.624 
L 419.76 239.4 
Q 419.76 243.432 426.096 243.432 
z
" clip-path="url(#pfc3101bb08)" style="fill: #fbfdff; stroke: #d6dee9; stroke-width: 0.8; stroke-linejoin: miter"/>
   </g>
   <g id="patch_13">
    <path d="M 550.44 243.432 
L 654.984 243.432 
Q 661.32 243.432 661.32 239.4 
L 661.32 204.624 
Q 661.32 200.592 654.984 200.592 
L 550.44 200.592 
Q 544.104 200.592 544.104 204.624 
L 544.104 239.4 
Q 544.104 243.432 550.44 243.432 
z
" clip-path="url(#pfc3101bb08)" style="fill: #fbfdff; stroke: #d6dee9; stroke-width: 0.8; stroke-linejoin: miter"/>
   </g>
   <g id="patch_14">
    <path d="M 45.936 436.464 
L 388.872 436.464 
Q 398.376 436.464 398.376 430.416 
L 398.376 279.216 
Q 398.376 273.168 388.872 273.168 
L 45.936 273.168 
Q 36.432 273.168 36.432 279.216 
L 36.432 430.416 
Q 36.432 436.464 45.936 436.464 
z
" clip-path="url(#pfc3101bb08)" style="fill: #ffffff; stroke: #d3dbe6; stroke-width: 0.8; stroke-linejoin: miter"/>
   </g>
   <g id="patch_15">
    <path d="M 67.32 334.152 
L 213.048 334.152 
Q 227.304 334.152 227.304 325.08 
L 227.304 313.488 
Q 227.304 304.416 213.048 304.416 
L 67.32 304.416 
Q 53.064 304.416 53.064 313.488 
L 53.064 325.08 
Q 53.064 334.152 67.32 334.152 
z
" clip-path="url(#pfc3101bb08)" style="fill: #ffffff; stroke: #3474b8; stroke-linejoin: miter"/>
   </g>
   <g id="patch_16">
    <path d="M 72.072 322.308 
C 73.332245 322.308 74.541044 321.989372 75.432171 321.422291 
C 76.323299 320.85521 76.824 320.085974 76.824 319.284 
C 76.824 318.482026 76.323299 317.71279 75.432171 317.145709 
C 74.541044 316.578628 73.332245 316.26 72.072 316.26 
C 70.811755 316.26 69.602956 316.578628 68.711829 317.145709 
C 67.820701 317.71279 67.32 318.482026 67.32 319.284 
C 67.32 320.085974 67.820701 320.85521 68.711829 321.422291 
C 69.602956 321.989372 70.811755 322.308 72.072 322.308 
z
" clip-path="url(#pfc3101bb08)" style="fill: #3474b8; stroke: #3474b8; stroke-linejoin: miter"/>
   </g>
   <g id="patch_17">
    <path d="M 67.32 369.432 
L 213.048 369.432 
Q 227.304 369.432 227.304 360.36 
L 227.304 348.768 
Q 227.304 339.696 213.048 339.696 
L 67.32 339.696 
Q 53.064 339.696 53.064 348.768 
L 53.064 360.36 
Q 53.064 369.432 67.32 369.432 
z
" clip-path="url(#pfc3101bb08)" style="fill: #ffffff; stroke: #d28d2f; stroke-linejoin: miter"/>
   </g>
   <g id="patch_18">
    <path d="M 72.072 357.588 
C 73.332245 357.588 74.541044 357.269372 75.432171 356.702291 
C 76.323299 356.13521 76.824 355.365974 76.824 354.564 
C 76.824 353.762026 76.323299 352.99279 75.432171 352.425709 
C 74.541044 351.858628 73.332245 351.54 72.072 351.54 
C 70.811755 351.54 69.602956 351.858628 68.711829 352.425709 
C 67.820701 352.99279 67.32 353.762026 67.32 354.564 
C 67.32 355.365974 67.820701 356.13521 68.711829 356.702291 
C 69.602956 357.269372 70.811755 357.588 72.072 357.588 
z
" clip-path="url(#pfc3101bb08)" style="fill: #d28d2f; stroke: #d28d2f; stroke-linejoin: miter"/>
   </g>
   <g id="patch_19">
    <path d="M 67.32 404.712 
L 213.048 404.712 
Q 227.304 404.712 227.304 395.64 
L 227.304 384.048 
Q 227.304 374.976 213.048 374.976 
L 67.32 374.976 
Q 53.064 374.976 53.064 384.048 
L 53.064 395.64 
Q 53.064 404.712 67.32 404.712 
z
" clip-path="url(#pfc3101bb08)" style="fill: #ffffff; stroke: #3f9167; stroke-linejoin: miter"/>
   </g>
   <g id="patch_20">
    <path d="M 72.072 392.868 
C 73.332245 392.868 74.541044 392.549372 75.432171 391.982291 
C 76.323299 391.41521 76.824 390.645974 76.824 389.844 
C 76.824 389.042026 76.323299 388.27279 75.432171 387.705709 
C 74.541044 387.138628 73.332245 386.82 72.072 386.82 
C 70.811755 386.82 69.602956 387.138628 68.711829 387.705709 
C 67.820701 388.27279 67.32 389.042026 67.32 389.844 
C 67.32 390.645974 67.820701 391.41521 68.711829 391.982291 
C 69.602956 392.549372 70.811755 392.868 72.072 392.868 
z
" clip-path="url(#pfc3101bb08)" style="fill: #3f9167; stroke: #3f9167; stroke-linejoin: miter"/>
   </g>
   <g id="patch_21">
    <path d="M 426.096 436.464 
L 746.064 436.464 
Q 755.568 436.464 755.568 430.416 
L 755.568 279.216 
Q 755.568 273.168 746.064 273.168 
L 426.096 273.168 
Q 416.592 273.168 416.592 279.216 
L 416.592 430.416 
Q 416.592 436.464 426.096 436.464 
z
" clip-path="url(#pfc3101bb08)" style="fill: #ffffff; stroke: #d3dbe6; stroke-width: 0.8; stroke-linejoin: miter"/>
   </g>
   <g id="line2d_1">
    <path d="M 447.48 341.712 
L 725.472 341.712 
" clip-path="url(#pfc3101bb08)" style="fill: none; stroke: #c2ccd8; stroke-width: 1.6; stroke-linecap: round"/>
   </g>
   <g id="line2d_2">
    <path d="M 447.48 392.112 
L 725.472 392.112 
" clip-path="url(#pfc3101bb08)" style="fill: none; stroke: #c2ccd8; stroke-width: 1.6; stroke-linecap: round"/>
   </g>
   <g id="line2d_3">
    <path d="M 41.184 462.672 
L 750.816 462.672 
" clip-path="url(#pfc3101bb08)" style="fill: none; stroke: #d3dbe6; stroke-width: 0.8; stroke-linecap: square"/>
   </g>
   <g id="text_1">
    <text style="font-weight: 700; font-size: 16px; font-family: 'Arial', 'Helvetica', 'DejaVu Sans', sans-serif; text-anchor: start; fill: #1f252e" x="31.68" y="42.896438" transform="rotate(-0 31.68 42.896438)">Fig. 1 | Spatial boundary modelling framework for myocardial infarction border-zone states</text>
   </g>
   <g id="text_2">
    <text style="font-size: 8.8px; font-family: 'Arial', 'Helvetica', 'DejaVu Sans', sans-serif; text-anchor: start; fill: #5d6979" x="31.68" y="61.342641" transform="rotate(-0 31.68 61.342641)">Public mouse MI Visium discovery, interpretable three-output scoring, domain 3/4 boundary analysis and human STEMI transfer</text>
   </g>
   <g id="text_3">
    <text style="font-weight: 700; font-size: 10.5px; font-family: 'Arial', 'Helvetica', 'DejaVu Sans', sans-serif; text-anchor: start; fill: #1f252e" x="55.44" y="120.540287" transform="rotate(-0 55.44 120.540287)">Public spatial data</text>
   </g>
   <g id="text_4">
    <text style="font-size: 8.6px; font-family: 'Arial', 'Helvetica', 'DejaVu Sans', sans-serif; fill: #5d6979" transform="translate(55.44 146.067325)">Mouse MI Visium</text>
    <text style="font-size: 8.6px; font-family: 'Arial', 'Helvetica', 'DejaVu Sans', sans-serif; fill: #5d6979" transform="translate(55.44 157.013429)">GSE214611</text>
    <text style="font-size: 8.6px; font-family: 'Arial', 'Helvetica', 'DejaVu Sans', sans-serif; fill: #5d6979" transform="translate(55.44 167.016892)">D3 and D7 injury stages</text>
   </g>
   <g id="text_5">
    <text style="font-weight: 700; font-size: 10.5px; font-family: 'Arial', 'Helvetica', 'DejaVu Sans', sans-serif; text-anchor: start; fill: #1f252e" x="239.976" y="120.540287" transform="rotate(-0 239.976 120.540287)">Signature scoring</text>
   </g>
   <g id="text_6">
    <text style="font-size: 8.6px; font-family: 'Arial', 'Helvetica', 'DejaVu Sans', sans-serif; fill: #5d6979" transform="translate(239.976 146.117716)">Curated modules for</text>
    <text style="font-size: 8.6px; font-family: 'Arial', 'Helvetica', 'DejaVu Sans', sans-serif; fill: #5d6979" transform="translate(239.976 156.108413)">mechanical injury,</text>
    <text style="font-size: 8.6px; font-family: 'Arial', 'Helvetica', 'DejaVu Sans', sans-serif; fill: #5d6979" transform="translate(239.976 167.911157)">immune-fibrotic activation</text>
    <text style="font-size: 8.6px; font-family: 'Arial', 'Helvetica', 'DejaVu Sans', sans-serif; fill: #5d6979" transform="translate(239.976 177.950229)">and scar repair</text>
   </g>
   <g id="text_7">
    <text style="font-weight: 700; font-size: 10.5px; font-family: 'Arial', 'Helvetica', 'DejaVu Sans', sans-serif; text-anchor: start; fill: #1f252e" x="424.512" y="120.540287" transform="rotate(-0 424.512 120.540287)">Spatial state model</text>
   </g>
   <g id="text_8">
    <text style="font-size: 8.6px; font-family: 'Arial', 'Helvetica', 'DejaVu Sans', sans-serif; fill: #5d6979" transform="translate(424.512 145.263091)">Three interpretable</text>
    <text style="font-size: 8.6px; font-family: 'Arial', 'Helvetica', 'DejaVu Sans', sans-serif; fill: #5d6979" transform="translate(424.512 156.158804)">output scores mapped</text>
    <text style="font-size: 8.6px; font-family: 'Arial', 'Helvetica', 'DejaVu Sans', sans-serif; fill: #5d6979" transform="translate(424.512 167.858751)">onto tissue coordinates</text>
   </g>
   <g id="text_9">
    <text style="font-weight: 700; font-size: 10.5px; font-family: 'Arial', 'Helvetica', 'DejaVu Sans', sans-serif; text-anchor: start; fill: #1f252e" x="609.048" y="120.540287" transform="rotate(-0 609.048 120.540287)">Transfer validation</text>
   </g>
   <g id="text_10">
    <text style="font-size: 8.6px; font-family: 'Arial', 'Helvetica', 'DejaVu Sans', sans-serif; fill: #5d6979" transform="translate(609.048 146.117716)">Human STEMI Visium</text>
    <text style="font-size: 8.6px; font-family: 'Arial', 'Helvetica', 'DejaVu Sans', sans-serif; fill: #5d6979" transform="translate(609.048 156.108413)">same signatures,</text>
    <text style="font-size: 8.6px; font-family: 'Arial', 'Helvetica', 'DejaVu Sans', sans-serif; fill: #5d6979" transform="translate(609.048 167.004126)">no retraining</text>
   </g>
   <g id="text_11">
    <text style="font-weight: 700; font-size: 11.5px; font-family: 'Arial', 'Helvetica', 'DejaVu Sans', sans-serif; text-anchor: start; fill: #3474b8" x="62.568" y="218.184074" transform="rotate(-0 62.568 218.184074)">6</text>
   </g>
   <g id="text_12">
    <text style="font-size: 7.4px; font-family: 'Arial', 'Helvetica', 'DejaVu Sans', sans-serif; fill: #5d6979" transform="translate(62.568 228.78305)">mouse MI Visium</text>
    <text style="font-size: 7.4px; font-family: 'Arial', 'Helvetica', 'DejaVu Sans', sans-serif; fill: #5d6979" transform="translate(62.568 235.382997)">samples</text>
   </g>
   <g id="text_13">
    <text style="font-weight: 700; font-size: 11.5px; font-family: 'Arial', 'Helvetica', 'DejaVu Sans', sans-serif; text-anchor: start; fill: #33918b" x="186.912" y="218.184074" transform="rotate(-0 186.912 218.184074)">14,147</text>
   </g>
   <g id="text_14">
    <text style="font-size: 7.4px; font-family: 'Arial', 'Helvetica', 'DejaVu Sans', sans-serif; fill: #5d6979" transform="translate(186.912 228.091034)">mouse spatial</text>
    <text style="font-size: 7.4px; font-family: 'Arial', 'Helvetica', 'DejaVu Sans', sans-serif; fill: #5d6979" transform="translate(186.912 235.382997)">tissue spots</text>
   </g>
   <g id="text_15">
    <text style="font-weight: 700; font-size: 11.5px; font-family: 'Arial', 'Helvetica', 'DejaVu Sans', sans-serif; text-anchor: start; fill: #d28d2f" x="311.256" y="218.184074" transform="rotate(-0 311.256 218.184074)">D3/D7</text>
   </g>
   <g id="text_16">
    <text style="font-size: 7.4px; font-family: 'Arial', 'Helvetica', 'DejaVu Sans', sans-serif; fill: #5d6979" transform="translate(311.256 228.091034)">temporal border-zone</text>
    <text style="font-size: 7.4px; font-family: 'Arial', 'Helvetica', 'DejaVu Sans', sans-serif; fill: #5d6979" transform="translate(311.256 235.382997)">comparison</text>
   </g>
   <g id="text_17">
    <text style="font-weight: 700; font-size: 11.5px; font-family: 'Arial', 'Helvetica', 'DejaVu Sans', sans-serif; text-anchor: start; fill: #5b55a5" x="435.6" y="218.184074" transform="rotate(-0 435.6 218.184074)">3</text>
   </g>
   <g id="text_18">
    <text style="font-size: 7.4px; font-family: 'Arial', 'Helvetica', 'DejaVu Sans', sans-serif; text-anchor: start; fill: #5d6979" x="435.6" y="231.737016" transform="rotate(-0 435.6 231.737016)">model outputs</text>
   </g>
   <g id="text_19">
    <text style="font-weight: 700; font-size: 11.5px; font-family: 'Arial', 'Helvetica', 'DejaVu Sans', sans-serif; text-anchor: start; fill: #bf4c43" x="559.944" y="218.184074" transform="rotate(-0 559.944 218.184074)">1,551</text>
   </g>
   <g id="text_20">
    <text style="font-size: 7.4px; font-family: 'Arial', 'Helvetica', 'DejaVu Sans', sans-serif; fill: #5d6979" transform="translate(559.944 228.826409)">human STEMI</text>
    <text style="font-size: 7.4px; font-family: 'Arial', 'Helvetica', 'DejaVu Sans', sans-serif; fill: #5d6979" transform="translate(559.944 235.382997)">tissue spots</text>
   </g>
   <g id="text_21">
    <text style="font-weight: 700; font-size: 11.2px; font-family: 'Arial', 'Helvetica', 'DejaVu Sans', sans-serif; text-anchor: start; fill: #1f252e" x="56.232" y="299.250437" transform="rotate(-0 56.232 299.250437)">Interpretable model outputs</text>
   </g>
   <g id="text_22">
    <text style="font-weight: 700; font-size: 7.2px; font-family: 'Arial', 'Helvetica', 'DejaVu Sans', sans-serif; text-anchor: start; fill: #1f252e" x="82.368" y="321.147281" transform="rotate(-0 82.368 321.147281)">mechanical_border_score</text>
   </g>
   <g id="text_23">
    <text style="font-size: 7.3px; font-family: 'Arial', 'Helvetica', 'DejaVu Sans', sans-serif; text-anchor: start; fill: #5d6979" x="239.976" y="321.128391" transform="rotate(-0 239.976 321.128391)">Mechanical edge and border-zone transition</text>
   </g>
   <g id="text_24">
    <text style="font-weight: 700; font-size: 7.2px; font-family: 'Arial', 'Helvetica', 'DejaVu Sans', sans-serif; text-anchor: start; fill: #1f252e" x="82.368" y="356.427281" transform="rotate(-0 82.368 356.427281)">immune_fibrotic_activation_score</text>
   </g>
   <g id="text_25">
    <text style="font-size: 7.3px; font-family: 'Arial', 'Helvetica', 'DejaVu Sans', sans-serif; fill: #5d6979" transform="translate(239.976 352.342348)">Myeloid, interferon, fibro-inflammatory and</text>
    <text style="font-size: 7.3px; font-family: 'Arial', 'Helvetica', 'DejaVu Sans', sans-serif; fill: #5d6979" transform="translate(239.976 361.244355)">matrix activation</text>
   </g>
   <g id="text_26">
    <text style="font-weight: 700; font-size: 7.2px; font-family: 'Arial', 'Helvetica', 'DejaVu Sans', sans-serif; text-anchor: start; fill: #1f252e" x="82.368" y="391.707281" transform="rotate(-0 82.368 391.707281)">fibroblast_scar_repair_score</text>
   </g>
   <g id="text_27">
    <text style="font-size: 7.3px; font-family: 'Arial', 'Helvetica', 'DejaVu Sans', sans-serif; text-anchor: start; fill: #5d6979" x="239.976" y="391.77793" transform="rotate(-0 239.976 391.77793)">POSTN/CTHRC1 reparative scar maturation</text>
   </g>
   <g id="text_28">
    <text style="font-size: 7.6px; font-family: 'Arial', 'Helvetica', 'DejaVu Sans', sans-serif; text-anchor: start; fill: #5d6979" x="56.232" y="419.782723" transform="rotate(-0 56.232 419.782723)">Scores are transparent signature summaries, not a black-box classifier.</text>
   </g>
   <g id="text_29">
    <text style="font-weight: 700; font-size: 11.2px; font-family: 'Arial', 'Helvetica', 'DejaVu Sans', sans-serif; text-anchor: start; fill: #1f252e" x="437.184" y="299.250328" transform="rotate(-0 437.184 299.250328)">Central biological hypothesis</text>
   </g>
   <g id="text_30">
    <text style="font-weight: 700; font-size: 10px; font-family: 'Arial', 'Helvetica', 'DejaVu Sans', sans-serif; text-anchor: start; fill: #3474b8" x="447.48" y="319.603891" transform="rotate(-0 447.48 319.603891)">Domain 3</text>
   </g>
   <g id="text_31">
    <text style="font-weight: 700; font-size: 9.4px; font-family: 'Arial', 'Helvetica', 'DejaVu Sans', sans-serif; text-anchor: start; fill: #1f252e" x="530.64" y="319.448617" transform="rotate(-0 530.64 319.448617)">mechanical-border axis</text>
   </g>
   <g id="patch_22">
    <path d="M 463.32 347.76 
C 465.84049 347.76 468.258087 347.122745 470.040343 345.988582 
C 471.822599 344.854419 472.824 343.315948 472.824 341.712 
C 472.824 340.108052 471.822599 338.569581 470.040343 337.435418 
C 468.258087 336.301255 465.84049 335.664 463.32 335.664 
C 460.79951 335.664 458.381913 336.301255 456.599657 337.435418 
C 454.817401 338.569581 453.816 340.108052 453.816 341.712 
C 453.816 343.315948 454.817401 344.854419 456.599657 345.988582 
C 458.381913 347.122745 460.79951 347.76 463.32 347.76 
z
" clip-path="url(#pfc3101bb08)" style="fill: #3474b8; stroke: #ffffff; stroke-width: 0.4; stroke-linejoin: miter"/>
   </g>
   <g id="patch_23">
    <path d="M 704.88 347.76 
C 707.40049 347.76 709.818087 347.122745 711.600343 345.988582 
C 713.382599 344.854419 714.384 343.315948 714.384 341.712 
C 714.384 340.108052 713.382599 338.569581 711.600343 337.435418 
C 709.818087 336.301255 707.40049 335.664 704.88 335.664 
C 702.35951 335.664 699.941913 336.301255 698.159657 337.435418 
C 696.377401 338.569581 695.376 340.108052 695.376 341.712 
C 695.376 343.315948 696.377401 344.854419 698.159657 345.988582 
C 699.941913 347.122745 702.35951 347.76 704.88 347.76 
z
" clip-path="url(#pfc3101bb08)" style="fill: #3474b8; stroke: #ffffff; stroke-width: 0.4; stroke-linejoin: miter"/>
   </g>
   <g id="text_32">
    <text style="font-weight: 700; font-size: 7.2px; font-family: 'Arial', 'Helvetica', 'DejaVu Sans', sans-serif; text-anchor: start; fill: #5d6979" x="455.4" y="358.695281" transform="rotate(-0 455.4 358.695281)">D3</text>
   </g>
   <g id="text_33">
    <text style="font-weight: 700; font-size: 7.2px; font-family: 'Arial', 'Helvetica', 'DejaVu Sans', sans-serif; text-anchor: start; fill: #5d6979" x="693" y="358.695281" transform="rotate(-0 693 358.695281)">D7</text>
   </g>
   <g id="text_34">
    <text style="font-weight: 700; font-size: 10px; font-family: 'Arial', 'Helvetica', 'DejaVu Sans', sans-serif; text-anchor: start; fill: #3f9167" x="447.48" y="370.003891" transform="rotate(-0 447.48 370.003891)">Domain 4</text>
   </g>
   <g id="text_35">
    <text style="font-weight: 700; font-size: 9.4px; font-family: 'Arial', 'Helvetica', 'DejaVu Sans', sans-serif; text-anchor: start; fill: #1f252e" x="530.64" y="369.848617" transform="rotate(-0 530.64 369.848617)">fibroblast-scar repair axis</text>
   </g>
   <g id="patch_24">
    <path d="M 463.32 398.16 
C 465.84049 398.16 468.258087 397.522745 470.040343 396.388582 
C 471.822599 395.254419 472.824 393.715948 472.824 392.112 
C 472.824 390.508052 471.822599 388.969581 470.040343 387.835418 
C 468.258087 386.701255 465.84049 386.064 463.32 386.064 
C 460.79951 386.064 458.381913 386.701255 456.599657 387.835418 
C 454.817401 388.969581 453.816 390.508052 453.816 392.112 
C 453.816 393.715948 454.817401 395.254419 456.599657 396.388582 
C 458.381913 397.522745 460.79951 398.16 463.32 398.16 
z
" clip-path="url(#pfc3101bb08)" style="fill: #a6c0ad; stroke: #ffffff; stroke-width: 0.4; stroke-linejoin: miter"/>
   </g>
   <g id="patch_25">
    <path d="M 704.88 398.16 
C 707.40049 398.16 709.818087 397.522745 711.600343 396.388582 
C 713.382599 395.254419 714.384 393.715948 714.384 392.112 
C 714.384 390.508052 713.382599 388.969581 711.600343 387.835418 
C 709.818087 386.701255 707.40049 386.064 704.88 386.064 
C 702.35951 386.064 699.941913 386.701255 698.159657 387.835418 
C 696.377401 388.969581 695.376 390.508052 695.376 392.112 
C 695.376 393.715948 696.377401 395.254419 698.159657 396.388582 
C 699.941913 397.522745 702.35951 398.16 704.88 398.16 
z
" clip-path="url(#pfc3101bb08)" style="fill: #3f9167; stroke: #ffffff; stroke-width: 0.4; stroke-linejoin: miter"/>
   </g>
   <g id="text_36">
    <text style="font-weight: 700; font-size: 7.2px; font-family: 'Arial', 'Helvetica', 'DejaVu Sans', sans-serif; text-anchor: start; fill: #5d6979" x="455.4" y="409.095211" transform="rotate(-0 455.4 409.095211)">Early intermixing</text>
   </g>
   <g id="text_37">
    <text style="font-weight: 700; font-size: 7.2px; font-family: 'Arial', 'Helvetica', 'DejaVu Sans', sans-serif; text-anchor: start; fill: #5d6979" x="693" y="409.095281" transform="rotate(-0 693 409.095281)">Scar maturation</text>
   </g>
   <g id="text_38">
    <text style="font-size: 7.4px; font-family: 'Arial', 'Helvetica', 'DejaVu Sans', sans-serif; text-anchor: start; fill: #5d6979" x="41.184" y="479.202967" transform="rotate(-0 41.184 479.202967)">Primary statistical unit: biological sample / stage-domain summary. Spot-level maps are used for spatial visualization and sensitivity analyses.</text>
   </g>
  </g>
 </g>
 <defs>
  <clipPath id="pfc3101bb08">
   <rect x="0" y="0" width="792" height="504"/>
  </clipPath>
 </defs>
</svg>
