<?xml version="1.0" encoding="utf-8" standalone="no"?>
<!DOCTYPE svg PUBLIC "-//W3C//DTD SVG 1.1//EN"
  "http://www.w3.org/Graphics/SVG/1.1/DTD/svg11.dtd">
<svg xmlns:xlink="http://www.w3.org/1999/xlink" width="620.03025pt" height="399.6pt" viewBox="0 0 620.03025 399.6" xmlns="http://www.w3.org/2000/svg" version="1.1">
 <metadata>
  <rdf:RDF xmlns:dc="http://purl.org/dc/elements/1.1/" xmlns:cc="http://creativecommons.org/ns#" xmlns:rdf="http://www.w3.org/1999/02/22-rdf-syntax-ns#">
   <cc:Work>
    <dc:type rdf:resource="http://purl.org/dc/dcmitype/StillImage"/>
    <dc:date>2026-07-20T02:02:51.899389</dc:date>
    <dc:format>image/svg+xml</dc:format>
    <dc:creator>
     <cc:Agent>
      <dc:title>Matplotlib v3.11.0, https://matplotlib.org/</dc:title>
     </cc:Agent>
    </dc:creator>
   </cc:Work>
  </rdf:RDF>
 </metadata>
 <defs>
  <style type="text/css">*{stroke-linejoin: round; stroke-linecap: butt}</style>
 </defs>
 <g id="figure_1">
  <g id="patch_1">
   <path d="M 0 399.6 
L 620.03025 399.6 
L 620.03025 0 
L 0 0 
z
" style="fill: #ffffff"/>
  </g>
  <g id="axes_1">
   <g id="patch_2">
    <path d="M 27.936 153.576 
L 123.84 153.576 
L 123.84 74.61 
L 27.936 74.61 
z
" clip-path="url(#p2d69784fa4)" style="fill: #ffffff; stroke: #2878b5; stroke-width: 1.2; stroke-linejoin: miter"/>
   </g>
   <g id="patch_3">
    <path d="M 154.944 153.576 
L 250.848 153.576 
L 250.848 74.61 
L 154.944 74.61 
z
" clip-path="url(#p2d69784fa4)" style="fill: #ffffff; stroke: #5a50a5; stroke-width: 1.2; stroke-linejoin: miter"/>
   </g>
   <g id="patch_4">
    <path d="M 281.952 153.576 
L 377.856 153.576 
L 377.856 74.61 
L 281.952 74.61 
z
" clip-path="url(#p2d69784fa4)" style="fill: #ffffff; stroke: #df8f27; stroke-width: 1.2; stroke-linejoin: miter"/>
   </g>
   <g id="patch_5">
    <path d="M 408.96 153.576 
L 504.864 153.576 
L 504.864 74.61 
L 408.96 74.61 
z
" clip-path="url(#p2d69784fa4)" style="fill: #ffffff; stroke: #2f9964; stroke-width: 1.2; stroke-linejoin: miter"/>
   </g>
   <g id="patch_6">
    <path d="M 127.395204 114.2856 
Q 138.09475 114.2856 147.564458 114.2856 
" clip-path="url(#p2d69784fa4)" style="fill: none; stroke: #5a6878; stroke-width: 1.1; stroke-linecap: round"/>
    <path d="M 143.164458 112.0856 
L 147.564458 114.2856 
L 143.164458 116.4856 
z
" clip-path="url(#p2d69784fa4)" style="fill: #5a6878; stroke: #5a6878; stroke-width: 1.1; stroke-linecap: round"/>
   </g>
   <g id="patch_7">
    <path d="M 254.403204 114.2856 
Q 265.10275 114.2856 274.572458 114.2856 
" clip-path="url(#p2d69784fa4)" style="fill: none; stroke: #5a6878; stroke-width: 1.1; stroke-linecap: round"/>
    <path d="M 270.172458 112.0856 
L 274.572458 114.2856 
L 270.172458 116.4856 
z
" clip-path="url(#p2d69784fa4)" style="fill: #5a6878; stroke: #5a6878; stroke-width: 1.1; stroke-linecap: round"/>
   </g>
   <g id="patch_8">
    <path d="M 381.411204 114.2856 
Q 392.11075 114.2856 401.580458 114.2856 
" clip-path="url(#p2d69784fa4)" style="fill: none; stroke: #5a6878; stroke-width: 1.1; stroke-linecap: round"/>
    <path d="M 397.180458 112.0856 
L 401.580458 114.2856 
L 397.180458 116.4856 
z
" clip-path="url(#p2d69784fa4)" style="fill: #5a6878; stroke: #5a6878; stroke-width: 1.1; stroke-linecap: round"/>
   </g>
   <g id="patch_9">
    <path d="M 30.528 203.652 
L 36.7488 203.652 
L 36.7488 189.7848 
L 30.528 189.7848 
z
" clip-path="url(#p2d69784fa4)" style="fill: #2878b5; stroke: #2878b5; stroke-linejoin: miter"/>
   </g>
   <g id="patch_10">
    <path d="M 30.528 236.394 
L 36.7488 236.394 
L 36.7488 222.5268 
L 30.528 222.5268 
z
" clip-path="url(#p2d69784fa4)" style="fill: #df8f27; stroke: #df8f27; stroke-linejoin: miter"/>
   </g>
   <g id="patch_11">
    <path d="M 30.528 269.136 
L 36.7488 269.136 
L 36.7488 255.2688 
L 30.528 255.2688 
z
" clip-path="url(#p2d69784fa4)" style="fill: #2f9964; stroke: #2f9964; stroke-linejoin: miter"/>
   </g>
   <g id="patch_12">
    <path d="M 27.936 361.584 
L 504.864 361.584 
L 504.864 315.36 
L 27.936 315.36 
z
" clip-path="url(#p2d69784fa4)" style="fill: #f5f7fa; stroke: #d9e0e8; stroke-linejoin: miter"/>
   </g>
   <g id="text_1">
    <text style="font-weight: 700; font-size: 13px; font-family: 'Arial', 'Helvetica', 'DejaVu Sans', sans-serif; text-anchor: start; fill: #17212b" x="25.344" y="33.998355" transform="rotate(-0 25.344 33.998355)">Figure 1 | SSTBA turns study-specific spatial atlases into auditable state and boundary outputs</text>
   </g>
   <g id="text_2">
    <text style="font-size: 8.2px; font-family: 'Arial', 'Helvetica', 'DejaVu Sans', sans-serif; text-anchor: start; fill: #5a6878" x="25.344" y="49.763824" transform="rotate(-0 25.344 49.763824)">Frozen signatures, explicit graph choices, falsification diagnostics and transfer without retraining</text>
   </g>
   <g id="text_3">
    <text style="font-weight: 700; font-size: 8.3px; font-family: 'Arial', 'Helvetica', 'DejaVu Sans', sans-serif; text-anchor: start; fill: #17212b" x="40.896" y="103.764627" transform="rotate(-0 40.896 103.764627)">1  Configure</text>
   </g>
   <g id="text_4">
    <text style="font-size: 6.8px; font-family: 'Arial', 'Helvetica', 'DejaVu Sans', sans-serif; fill: #5a6878" transform="translate(40.896 134.603514)">Expression or score table</text>
    <text style="font-size: 6.8px; font-family: 'Arial', 'Helvetica', 'DejaVu Sans', sans-serif; fill: #5a6878" transform="translate(40.896 143.854635)">coordinates + labels</text>
    <text style="font-size: 6.8px; font-family: 'Arial', 'Helvetica', 'DejaVu Sans', sans-serif; fill: #5a6878" transform="translate(40.896 151.7941)">versioned signatures</text>
   </g>
   <g id="text_5">
    <text style="font-weight: 700; font-size: 8.3px; font-family: 'Arial', 'Helvetica', 'DejaVu Sans', sans-serif; text-anchor: start; fill: #17212b" x="167.904" y="103.764627" transform="rotate(-0 167.904 103.764627)">2  Score</text>
   </g>
   <g id="text_6">
    <text style="font-size: 6.8px; font-family: 'Arial', 'Helvetica', 'DejaVu Sans', sans-serif; fill: #5a6878" transform="translate(167.904 134.56367)">Per-gene z scores</text>
    <text style="font-size: 6.8px; font-family: 'Arial', 'Helvetica', 'DejaVu Sans', sans-serif; fill: #5a6878" transform="translate(167.904 143.896072)">frozen module means</text>
    <text style="font-size: 6.8px; font-family: 'Arial', 'Helvetica', 'DejaVu Sans', sans-serif; fill: #5a6878" transform="translate(167.904 151.7941)">coverage diagnostics</text>
   </g>
   <g id="text_7">
    <text style="font-weight: 700; font-size: 8.3px; font-family: 'Arial', 'Helvetica', 'DejaVu Sans', sans-serif; text-anchor: start; fill: #17212b" x="294.912" y="103.764627" transform="rotate(-0 294.912 103.764627)">3  Build boundary</text>
   </g>
   <g id="text_8">
    <text style="font-size: 6.8px; font-family: 'Arial', 'Helvetica', 'DejaVu Sans', sans-serif; fill: #5a6878" transform="translate(294.912 134.56367)">Radius or k-nearest graph</text>
    <text style="font-size: 6.8px; font-family: 'Arial', 'Helvetica', 'DejaVu Sans', sans-serif; fill: #5a6878" transform="translate(294.912 143.260166)">prespecified label pair</text>
    <text style="font-size: 6.8px; font-family: 'Arial', 'Helvetica', 'DejaVu Sans', sans-serif; fill: #5a6878" transform="translate(294.912 151.7941)">edge-local gradients</text>
   </g>
   <g id="text_9">
    <text style="font-weight: 700; font-size: 8.3px; font-family: 'Arial', 'Helvetica', 'DejaVu Sans', sans-serif; text-anchor: start; fill: #17212b" x="421.92" y="103.764627" transform="rotate(-0 421.92 103.764627)">4  Transfer</text>
   </g>
   <g id="text_10">
    <text style="font-size: 6.8px; font-family: 'Arial', 'Helvetica', 'DejaVu Sans', sans-serif; fill: #5a6878" transform="translate(421.92 134.603514)">Independent mouse + human</text>
    <text style="font-size: 6.8px; font-family: 'Arial', 'Helvetica', 'DejaVu Sans', sans-serif; fill: #5a6878" transform="translate(421.92 143.220322)">no parameter fitting</text>
    <text style="font-size: 6.8px; font-family: 'Arial', 'Helvetica', 'DejaVu Sans', sans-serif; fill: #5a6878" transform="translate(421.92 151.779225)">same output contract</text>
   </g>
   <g id="text_11">
    <text style="font-weight: 700; font-size: 9px; font-family: 'Arial', 'Helvetica', 'DejaVu Sans', sans-serif; text-anchor: start; fill: #17212b" x="27.936" y="178.614" transform="rotate(-0 27.936 178.614)">Three interpretable outputs</text>
   </g>
   <g id="text_12">
    <text style="font-weight: 700; font-size: 7.7px; font-family: 'Arial', 'Helvetica', 'DejaVu Sans', sans-serif; text-anchor: start; fill: #17212b" x="43.488" y="193.6368" transform="rotate(-0 43.488 193.6368)">Mechanical-border</text>
   </g>
   <g id="text_13">
    <text style="font-size: 6.8px; font-family: 'Arial', 'Helvetica', 'DejaVu Sans', sans-serif; text-anchor: start; fill: #5a6878" x="139.392" y="193.6368" transform="rotate(-0 139.392 193.6368)">cardiomyocyte edge and border-zone direction</text>
   </g>
   <g id="text_14">
    <text style="font-weight: 700; font-size: 7.7px; font-family: 'Arial', 'Helvetica', 'DejaVu Sans', sans-serif; text-anchor: start; fill: #17212b" x="43.488" y="226.3788" transform="rotate(-0 43.488 226.3788)">Immune-fibrotic</text>
   </g>
   <g id="text_15">
    <text style="font-size: 6.8px; font-family: 'Arial', 'Helvetica', 'DejaVu Sans', sans-serif; text-anchor: start; fill: #5a6878" x="139.392" y="226.3788" transform="rotate(-0 139.392 226.3788)">myeloid, TGF-β and fibro-inflammatory activity</text>
   </g>
   <g id="text_16">
    <text style="font-weight: 700; font-size: 7.7px; font-family: 'Arial', 'Helvetica', 'DejaVu Sans', sans-serif; text-anchor: start; fill: #17212b" x="43.488" y="259.1208" transform="rotate(-0 43.488 259.1208)">Fibroblast-scar repair</text>
   </g>
   <g id="text_17">
    <text style="font-size: 6.8px; font-family: 'Arial', 'Helvetica', 'DejaVu Sans', sans-serif; text-anchor: start; fill: #5a6878" x="139.392" y="259.1208" transform="rotate(-0 139.392 259.1208)">POSTN/CTHRC1-associated reparative scar state</text>
   </g>
   <g id="text_18">
    <text style="font-weight: 700; font-size: 9px; font-family: 'Arial', 'Helvetica', 'DejaVu Sans', sans-serif; text-anchor: start; fill: #17212b" x="302.688" y="178.614" transform="rotate(-0 302.688 178.614)">Required diagnostics</text>
   </g>
   <g id="text_19">
    <g id="patch_13">
     <path d="M 305.28 202.908668 
C 306.61521 202.908668 307.895912 202.378184 308.840048 201.434048 
C 309.784184 200.489912 310.314668 199.20921 310.314668 197.874 
C 310.314668 196.53879 309.784184 195.258088 308.840048 194.313952 
C 307.895912 193.369816 306.61521 192.839332 305.28 192.839332 
C 303.94479 192.839332 302.664088 193.369816 301.719952 194.313952 
C 300.775816 195.258088 300.245332 196.53879 300.245332 197.874 
C 300.245332 199.20921 300.775816 200.489912 301.719952 201.434048 
C 302.664088 202.378184 303.94479 202.908668 305.28 202.908668 
z
" style="fill: #5a6878"/>
    </g>
    <text style="font-weight: 700; font-size: 7px; font-family: 'Arial', 'Helvetica', 'DejaVu Sans', sans-serif; text-anchor: middle; fill: #ffffff" x="305.28" y="199.685523" transform="rotate(-0 305.28 199.685523)">1</text>
   </g>
   <g id="text_20">
    <text style="font-size: 7.1px; font-family: 'Arial', 'Helvetica', 'DejaVu Sans', sans-serif; text-anchor: start; fill: #17212b" x="319.2768" y="199.711333" transform="rotate(-0 319.2768 199.711333)">missing-gene and module coverage</text>
   </g>
   <g id="text_21">
    <g id="patch_14">
     <path d="M 305.28 226.791068 
C 306.61521 226.791068 307.895912 226.260584 308.840048 225.316448 
C 309.784184 224.372312 310.314668 223.09161 310.314668 221.7564 
C 310.314668 220.42119 309.784184 219.140488 308.840048 218.196352 
C 307.895912 217.252216 306.61521 216.721732 305.28 216.721732 
C 303.94479 216.721732 302.664088 217.252216 301.719952 218.196352 
C 300.775816 219.140488 300.245332 220.42119 300.245332 221.7564 
C 300.245332 223.09161 300.775816 224.372312 301.719952 225.316448 
C 302.664088 226.260584 303.94479 226.791068 305.28 226.791068 
z
" style="fill: #5a6878"/>
    </g>
    <text style="font-weight: 700; font-size: 7px; font-family: 'Arial', 'Helvetica', 'DejaVu Sans', sans-serif; text-anchor: middle; fill: #ffffff" x="305.28" y="223.567923" transform="rotate(-0 305.28 223.567923)">2</text>
   </g>
   <g id="text_22">
    <text style="font-size: 7.1px; font-family: 'Arial', 'Helvetica', 'DejaVu Sans', sans-serif; text-anchor: start; fill: #17212b" x="319.2768" y="223.593802" transform="rotate(-0 319.2768 223.593802)">sample omission and module dropout</text>
   </g>
   <g id="text_23">
    <g id="patch_15">
     <path d="M 305.28 250.673468 
C 306.61521 250.673468 307.895912 250.142984 308.840048 249.198848 
C 309.784184 248.254712 310.314668 246.97401 310.314668 245.6388 
C 310.314668 244.30359 309.784184 243.022888 308.840048 242.078752 
C 307.895912 241.134616 306.61521 240.604132 305.28 240.604132 
C 303.94479 240.604132 302.664088 241.134616 301.719952 242.078752 
C 300.775816 243.022888 300.245332 244.30359 300.245332 245.6388 
C 300.245332 246.97401 300.775816 248.254712 301.719952 249.198848 
C 302.664088 250.142984 303.94479 250.673468 305.28 250.673468 
z
" style="fill: #5a6878"/>
    </g>
    <text style="font-weight: 700; font-size: 7px; font-family: 'Arial', 'Helvetica', 'DejaVu Sans', sans-serif; text-anchor: middle; fill: #ffffff" x="305.28" y="247.450323" transform="rotate(-0 305.28 247.450323)">3</text>
   </g>
   <g id="text_24">
    <text style="font-size: 7.1px; font-family: 'Arial', 'Helvetica', 'DejaVu Sans', sans-serif; text-anchor: start; fill: #17212b" x="319.2768" y="247.476133" transform="rotate(-0 319.2768 247.476133)">matched random signatures and spatial nulls</text>
   </g>
   <g id="text_25">
    <g id="patch_16">
     <path d="M 305.28 274.555868 
C 306.61521 274.555868 307.895912 274.025384 308.840048 273.081248 
C 309.784184 272.137112 310.314668 270.85641 310.314668 269.5212 
C 310.314668 268.18599 309.784184 266.905288 308.840048 265.961152 
C 307.895912 265.017016 306.61521 264.486532 305.28 264.486532 
C 303.94479 264.486532 302.664088 265.017016 301.719952 265.961152 
C 300.775816 266.905288 300.245332 268.18599 300.245332 269.5212 
C 300.245332 270.85641 300.775816 272.137112 301.719952 273.081248 
C 302.664088 274.025384 303.94479 274.555868 305.28 274.555868 
z
" style="fill: #5a6878"/>
    </g>
    <text style="font-weight: 700; font-size: 7px; font-family: 'Arial', 'Helvetica', 'DejaVu Sans', sans-serif; text-anchor: middle; fill: #ffffff" x="305.28" y="271.332723" transform="rotate(-0 305.28 271.332723)">4</text>
   </g>
   <g id="text_26">
    <text style="font-size: 7.1px; font-family: 'Arial', 'Helvetica', 'DejaVu Sans', sans-serif; text-anchor: start; fill: #17212b" x="319.2768" y="271.358533" transform="rotate(-0 319.2768 271.358533)">simple-score baselines and negative results</text>
   </g>
   <g id="text_27">
    <text style="font-weight: 700; font-size: 8.5px; font-family: 'Arial', 'Helvetica', 'DejaVu Sans', sans-serif; text-anchor: start; fill: #17212b" x="38.304" y="329.9976" transform="rotate(-0 38.304 329.9976)">Reproducibility contract</text>
   </g>
   <g id="text_28">
    <text style="font-size: 6.9px; font-family: 'Arial', 'Helvetica', 'DejaVu Sans', sans-serif; fill: #5a6878" transform="translate(38.304 340.354737)">CLI validation • deterministic test run • versions and parameters</text>
    <text style="font-size: 6.9px; font-family: 'Arial', 'Helvetica', 'DejaVu Sans', sans-serif; fill: #5a6878" transform="translate(38.304 347.864552)">input/output SHA-256 hashes</text>
   </g>
   <g id="text_29">
    <text style="font-size: 6.8px; font-family: 'Arial', 'Helvetica', 'DejaVu Sans', sans-serif; fill: #17212b" transform="translate(422.892938 336.998654)">14,147 mouse spots</text>
    <text style="font-size: 6.8px; font-family: 'Arial', 'Helvetica', 'DejaVu Sans', sans-serif; fill: #17212b" transform="translate(355.79075 344.39963)">+ independent mouse and human sections</text>
   </g>
  </g>
 </g>
 <defs>
  <clipPath id="p2d69784fa4">
   <rect x="7.2" y="7.2" width="518.4" height="385.2"/>
  </clipPath>
 </defs>
</svg>
